<svg xmlns="http://www.w3.org/2000/svg" width="8.844" height="7.488" viewBox="0 0 8.844 7.488"><title>icons</title><path d="M7.382 4.112a.142.142 0 0 0-.06-.016.17.17 0 0 0-.122.053l-.34.34a.165.165 0 0 0-.048.116v1.35a.853.853 0 0 1-.85.852H1.53a.853.853 0 0 1-.852-.85V1.53a.853.853 0 0 1 .85-.85h4.426a.925.925 0 0 1 .24.03.155.155 0 0 0 .047.012.183.183 0 0 0 .122-.053l.26-.26a.167.167 0 0 0 .05-.154.173.173 0 0 0-.1-.122A1.488 1.488 0 0 0 5.95 0h-4.42A1.532 1.532 0 0 0-.002 1.534v4.425A1.532 1.532 0 0 0 1.53 7.49h4.426a1.532 1.532 0 0 0 1.532-1.532V4.266a.167.167 0 0 0-.106-.154z" fill="#b0b7c2"/><path d="M8.717 1.06L8.132.473a.424.424 0 0 0-.606 0l-3.44 3.44-1.4-1.4a.424.424 0 0 0-.607 0l-.586.586a.424.424 0 0 0 0 .606L3.78 5.993a.424.424 0 0 0 .607 0l4.33-4.33a.424.424 0 0 0 0-.604z" fill="#072240"/></svg>