<svg xmlns="http://www.w3.org/2000/svg" width="7.547" height="5.93" viewBox="0 0 7.547 5.93"><title>icons</title><path d="M7.547 5.255a.676.676 0 0 1-.674.674h-6.2A.676.676 0 0 1 0 5.254V.673A.676.676 0 0 1 .672 0h6.2a.676.676 0 0 1 .674.673v4.582zM6.873.54h-6.2a.14.14 0 0 0-.135.135 1.52 1.52 0 0 0 .62 1.2q.846.664 1.688 1.335a2.08 2.08 0 0 0 .922.568h.01a2.08 2.08 0 0 0 .92-.568q.842-.67 1.69-1.335a1.642 1.642 0 0 0 .62-1.04c0-.11.025-.295-.135-.295zm.135 1.482a2.34 2.34 0 0 1-.29.278c-.6.463-1.21.935-1.795 1.423a1.95 1.95 0 0 1-1.146.59H3.77a1.95 1.95 0 0 1-1.147-.59C2.038 3.235 1.433 2.763.83 2.3a2.34 2.34 0 0 1-.292-.278v3.234a.14.14 0 0 0 .135.135h6.2a.14.14 0 0 0 .135-.134V2.022z" fill="#4f91e0"/></svg>