<svg xmlns="http://www.w3.org/2000/svg" width="8.844" height="7.488" viewBox="0 0 8.844 7.488"><title>icons</title><path d="M97.96,35.786A0.142,0.142,0,0,0,97.9,35.77a0.17,0.17,0,0,0-.122.053l-0.34.34a0.165,0.165,0,0,0-.048.117v1.351a0.853,0.853,0,0,1-.851.851H92.109a0.853,0.853,0,0,1-.851-0.851V33.206a0.853,0.853,0,0,1,.851-0.851h4.425a0.925,0.925,0,0,1,.239.032,0.155,0.155,0,0,0,.048.011,0.183,0.183,0,0,0,.122-0.053l0.261-.261a0.167,0.167,0,0,0,.048-0.154,0.173,0.173,0,0,0-.1-0.122,1.488,1.488,0,0,0-.622-0.133H92.109a1.532,1.532,0,0,0-1.532,1.532v4.425a1.532,1.532,0,0,0,1.532,1.532h4.425a1.532,1.532,0,0,0,1.532-1.532V35.94A0.167,0.167,0,0,0,97.96,35.786Z" transform="translate(-90.578 -31.674)" fill="#b0b7c2"/><path d="M99.295,32.733l-0.585-.585a0.424,0.424,0,0,0-.606,0l-3.441,3.441-1.4-1.4a0.424,0.424,0,0,0-.606,0l-0.585.585a0.424,0.424,0,0,0,0,.606l2.287,2.287a0.424,0.424,0,0,0,.606,0l4.329-4.329A0.424,0.424,0,0,0,99.295,32.733Z" transform="translate(-90.578 -31.674)" fill="#072240"/></svg>