<svg xmlns="http://www.w3.org/2000/svg" width="8.273" height="8.273" viewBox="0 0 8.273 8.273"><title>icons</title><path d="M39.137,65.8a0.207,0.207,0,0,1-.151.194l-1,.15a3,3,0,0,1-.21.49c0.183,0.264.377,0.5,0.576,0.743a0.213,0.213,0,0,1,.054.135,0.18,0.18,0,0,1-.048.124,4.12,4.12,0,0,1-1.04.964,0.277,0.277,0,0,1-.14-0.048l-0.744-.582a3.328,3.328,0,0,1-.49.205,7.145,7.145,0,0,1-.156,1,0.2,0.2,0,0,1-.194.15H34.4a0.193,0.193,0,0,1-.194-0.161l-0.15-.991a3.328,3.328,0,0,1-.485-0.2l-0.76.576a0.206,0.206,0,0,1-.134.048,0.194,0.194,0,0,1-.135-0.059,6.709,6.709,0,0,1-.889-0.905,0.209,0.209,0,0,1-.038-0.124,0.2,0.2,0,0,1,.043-0.124c0.183-.247.382-0.484,0.565-0.737a2.859,2.859,0,0,1-.221-0.533l-0.986-.146a0.2,0.2,0,0,1-.156-0.194v-1.2a0.209,0.209,0,0,1,.146-0.194l1-.151a2.816,2.816,0,0,1,.21-0.5c-0.183-.259-0.377-0.5-0.576-0.744a0.2,0.2,0,0,1-.054-0.129,0.208,0.208,0,0,1,.048-0.124,4.035,4.035,0,0,1,1.04-.964,0.236,0.236,0,0,1,.14.054l0.744,0.576a3.223,3.223,0,0,1,.49-0.2,7.134,7.134,0,0,1,.156-1,0.2,0.2,0,0,1,.194-0.151h1.2a0.193,0.193,0,0,1,.194.162l0.15,0.991a3.124,3.124,0,0,1,.485.2l0.765-.577a0.183,0.183,0,0,1,.129-0.048,0.21,0.21,0,0,1,.135.054,6.756,6.756,0,0,1,.889.916,0.181,0.181,0,0,1,.038.119,0.2,0.2,0,0,1-.043.124c-0.183.248-.382,0.485-0.565,0.738a2.939,2.939,0,0,1,.221.528l0.986,0.15a0.2,0.2,0,0,1,.156.194v1.2ZM35,63.813a1.379,1.379,0,1,0,1.379,1.379A1.382,1.382,0,0,0,35,63.813Z" transform="translate(-30.863 -61.056)" fill="#666"/></svg>