<svg xmlns="http://www.w3.org/2000/svg" width="7.547" height="5.93" viewBox="0 0 7.547 5.93"><title>icons</title><path d="M38.855,127.315a0.676,0.676,0,0,1-.674.674h-6.2a0.676,0.676,0,0,1-.674-0.674v-4.582a0.676,0.676,0,0,1,.674-0.674h6.2a0.676,0.676,0,0,1,.674.674v4.582ZM38.181,122.6h-6.2a0.139,0.139,0,0,0-.135.135,1.519,1.519,0,0,0,.619,1.2q0.847,0.664,1.689,1.335a2.08,2.08,0,0,0,.922.568h0.009a2.08,2.08,0,0,0,.922-0.568q0.841-.669,1.689-1.335a1.642,1.642,0,0,0,.619-1.04C38.316,122.784,38.341,122.6,38.181,122.6Zm0.135,1.482a2.34,2.34,0,0,1-.291.278c-0.6.463-1.209,0.935-1.794,1.423a1.949,1.949,0,0,1-1.146.59H35.077a1.949,1.949,0,0,1-1.146-.59c-0.585-.488-1.191-0.96-1.794-1.423a2.34,2.34,0,0,1-.291-0.278v3.234a0.139,0.139,0,0,0,.135.135h6.2a0.139,0.139,0,0,0,.135-0.135v-3.234Z" transform="translate(-31.308 -122.06)" fill="#4f91e0"/></svg>