<svg xmlns="http://www.w3.org/2000/svg" width="7.566" height="7.566" viewBox="0 0 7.566 7.566"><title>icons_3</title><path d="M7.566,1.418V6.147A1.42,1.42,0,0,1,6.147,7.566H1.419a1.366,1.366,0,0,1-1-.416,1.367,1.367,0,0,1-.416-1V1.418a1.367,1.367,0,0,1,.416-1,1.366,1.366,0,0,1,1-.416H6.147a1.369,1.369,0,0,1,1,.416A1.367,1.367,0,0,1,7.566,1.418ZM2.68,6.305l2.68-2.68L3.94,2.207l-2.68,2.68V6.305ZM1.99,4.827l.749.749-.257.256H2.207V5.359H1.734V5.083ZM4.029,2.906q.069.064-.015.147L2.581,4.487c-.056.056-.105.061-.147.015s-.041-.092.015-.147L3.882,2.921C3.938,2.865,3.986,2.86,4.029,2.906Zm1.646.4.453-.453a.476.476,0,0,0,0-.67l-.749-.749a.476.476,0,0,0-.67,0l-.453.454Z" fill="#2e3191"/></svg>