<svg xmlns="http://www.w3.org/2000/svg" width="7.756" height="7.756" viewBox="0 0 7.756 7.756"><title>minus-square-o</title><path d="M38.857,157.46a1.587,1.587,0,0,1-1.586,1.587H32.688A1.587,1.587,0,0,1,31.1,157.46v-4.582a1.587,1.587,0,0,1,1.586-1.587h4.583a1.587,1.587,0,0,1,1.586,1.587v4.582Zm-0.705-4.582A0.884,0.884,0,0,0,37.271,152H32.688a0.884,0.884,0,0,0-.881.882v4.582a0.884,0.884,0,0,0,.881.882h4.583a0.884,0.884,0,0,0,.881-0.882v-4.582Zm-0.705,2.467a0.174,0.174,0,0,1-.176.177H32.688a0.174,0.174,0,0,1-.176-0.177v-0.352a0.174,0.174,0,0,1,.176-0.177h4.583a0.174,0.174,0,0,1,.176.177v0.352Z" transform="translate(-31.101 -151.291)" fill="#072240"/></svg>