<svg xmlns="http://www.w3.org/2000/svg" width="7.928" height="7.928" viewBox="0 0 7.928 7.928"><title>plus-square-o</title><path d="M8.891,157.379A1.622,1.622,0,0,1,7.269,159H2.584a1.622,1.622,0,0,1-1.622-1.621v-4.686a1.622,1.622,0,0,1,1.622-1.621H7.269a1.622,1.622,0,0,1,1.622,1.621v4.686ZM8.17,152.693a0.9,0.9,0,0,0-.9-0.9H2.584a0.9,0.9,0,0,0-.9.9v4.686a0.9,0.9,0,0,0,.9.9H7.269a0.9,0.9,0,0,0,.9-0.9v-4.686Zm-0.721,2.523a0.178,0.178,0,0,1-.18.18H5.287v1.982a0.178,0.178,0,0,1-.18.18H4.747a0.178,0.178,0,0,1-.18-0.18V155.4H2.584a0.178,0.178,0,0,1-.18-0.18v-0.361a0.178,0.178,0,0,1,.18-0.18H4.566v-1.982a0.178,0.178,0,0,1,.18-0.18h0.36a0.178,0.178,0,0,1,.18.18v1.982H7.269a0.178,0.178,0,0,1,.18.18v0.361Z" transform="translate(-0.963 -151.072)" fill="#072240"/></svg>