<svg xmlns="http://www.w3.org/2000/svg" width="7.439" height="8.996" viewBox="0 0 7.439 8.996"><title>youtube</title><path d="M98.612,68.719a0.938,0.938,0,0,1-.8.728,36.853,36.853,0,0,1-5.572,0,0.933,0.933,0,0,1-.8-0.728,7.949,7.949,0,0,1-.13-1.758,8.227,8.227,0,0,1,.13-1.757,0.95,0.95,0,0,1,.809-0.732,38.569,38.569,0,0,1,5.567,0,0.944,0.944,0,0,1,.8.732,7.923,7.923,0,0,1,.13,1.757A8.255,8.255,0,0,1,98.612,68.719Zm-5.187-3.008V65.239H91.859v0.472h0.527v2.856h0.5V65.711h0.537Zm0.818-5.155-0.607,2v1.36h-0.5v-1.36a7.988,7.988,0,0,0-.306-1.064c-0.111-.311-0.222-0.627-0.327-0.938h0.532l0.356,1.32,0.342-1.32h0.512Zm0.537,8.012V66.088H94.335v1.9a0.4,0.4,0,0,1-.286.211,0.1,0.1,0,0,1-.105-0.105,1.186,1.186,0,0,1,0-.176V66.088H93.491v1.963a1.242,1.242,0,0,0,.04.366,0.274,0.274,0,0,0,.291.186,0.727,0.727,0,0,0,.513-0.306v0.271h0.446Zm0.809-5.462a0.988,0.988,0,0,1-.141.593,0.676,0.676,0,0,1-1.06,0,1.007,1.007,0,0,1-.141-0.593V62.228a0.98,0.98,0,0,1,.141-0.588,0.676,0.676,0,0,1,1.06,0,0.973,0.973,0,0,1,.141.588v0.878Zm-0.457-.969c0-.23-0.065-0.346-0.216-0.346s-0.216.115-.216,0.346v1.055c0,0.23.07,0.352,0.216,0.352s0.216-.121.216-0.352V62.137Zm1.355,4.7a1.719,1.719,0,0,0-.045-0.5,0.353,0.353,0,0,0-.356-0.281,0.61,0.61,0,0,0-.467.271v-1.09H95.173v3.328H95.62v-0.24a0.616,0.616,0,0,0,.467.275,0.353,0.353,0,0,0,.356-0.275,1.783,1.783,0,0,0,.045-0.5V66.836ZM96.042,67.86c0,0.226-.065.336-0.2,0.336a0.321,0.321,0,0,1-.226-0.11V66.575a0.317,0.317,0,0,1,.226-0.11c0.131,0,.2.115,0.2,0.336v1.06Zm1.229-3.941H96.814V63.643a0.721,0.721,0,0,1-.517.312,0.286,0.286,0,0,1-.3-0.186,1.3,1.3,0,0,1-.04-0.377V61.414h0.457v1.843a1.151,1.151,0,0,0,0,.176,0.107,0.107,0,0,0,.105.11,0.4,0.4,0,0,0,.286-0.216V61.414h0.457v2.5Zm0.914,3.79H97.729a2.738,2.738,0,0,1-.01.307,0.194,0.194,0,0,1-.2.181c-0.155,0-.231-0.115-0.231-0.347V67.413h0.9V66.9a1,1,0,0,0-.136-0.583,0.687,0.687,0,0,0-1.069,0,0.957,0.957,0,0,0-.141.583v0.868a0.941,0.941,0,0,0,.146.582,0.638,0.638,0,0,0,.542.256,0.62,0.62,0,0,0,.542-0.266,0.573,0.573,0,0,0,.105-0.271,1.83,1.83,0,0,0,.011-0.291V67.709Zm-0.447-.672H97.286V66.806c0-.226.076-0.341,0.227-0.341s0.226,0.115.226,0.341v0.231Z" transform="translate(-91.303 -60.556)" fill="#ca2027"/></svg>